<?xml version="1.0" encoding="UTF-8"?>
<!-- Generator: Blender, SVG Export for Grease Pencil - v1.0 -->
<!DOCTYPE svg PUBLIC "-//W3C//DTD SVG 1.1//EN" "http://www.w3.org/Graphics/SVG/1.1/DTD/svg11.dtd">
<svg version="1.0" x="0px" y="0px" xmlns="http://www.w3.org/2000/svg" width="524px" height="524px" viewBox="0 0 524 524">
	<g id="blender_frame_1">
		<g id="blender_object_GPencil.002">
			<!--Layer: fills-->
			<g id="fills">
				<polygon fill="#3C4253" stroke="none" fill-opacity="1" points="259.782654,44.425964 236.109375,46.969727 223.649475,48.602844 211.383911,51.275574 199.106689,54.285156 187.134033,58.257141 175.439392,63.087341 163.998413,68.526917 152.648132,74.218567 141.821472,80.776367 132.253296,89.023438 123.820251,98.369568 116.417114,108.587769 110.204041,119.627075 105.126526,131.220764 100.518433,142.995422 96.431030,154.966003 90.843262,166.348785 81.857056,175.073547 71.600403,182.502808 62.579773,191.198242 55.140808,201.398590 50.299866,213.099396 49.393372,225.642212 52.457642,237.651489 62.601074,244.360229 75.197021,245.125427 87.682007,243.742462 91.516602,254.249695 93.159668,266.686005 95.590881,279.023224 98.271179,291.286407 101.606567,303.442566 101.929016,313.719299 90.384460,318.899536 80.766907,327.085083 74.068848,337.738037 71.611633,350.004517 72.601013,362.538696 76.075317,374.584473 81.872620,385.868896 89.225891,396.174072 97.116760,406.043823 105.719421,415.340881 114.615662,424.330444 124.390076,432.350769 134.230591,440.299805 144.807068,447.207092 155.701538,453.676270 166.800964,459.765625 178.410828,464.809082 190.026794,469.835632 202.037170,473.829468 214.380798,476.375610 226.796753,474.800964 236.459595,466.975098 238.976135,454.746338 238.457825,442.129150 250.292786,442.348145 262.872009,443.042358 275.503174,442.623840 287.348145,441.249207 286.892700,453.783569 288.859863,466.088135 298.121643,474.550537 310.449585,476.311035 322.730835,473.720093 334.772705,469.994873 346.586304,465.482910 358.048462,460.042114 369.405273,454.363464 380.306702,447.904968 390.917725,440.995667 400.682678,432.962769 410.490479,425.000366 419.083740,415.712158 428.052063,406.723755 435.880798,396.805908 443.250916,386.558838 449.444153,375.508057 452.871338,363.455627 453.558899,350.876343 452.056763,338.423767 445.651917,327.559875 436.044189,319.368896 424.577515,314.091919 423.750427,303.827393 427.188965,291.708710 429.824951,279.431183 432.060303,267.099823 434.118835,254.708435 436.435669,243.064484 448.898987,244.646698 461.500183,245.124542 472.144287,239.013306 477.177124,227.626160 475.710205,215.148956 471.357666,203.346436 464.459778,192.804779 455.888184,183.620026 445.661133,176.155426 436.172913,167.957581 430.063538,156.864319 425.766357,144.972534 421.388550,133.107910 416.508545,121.426270 410.598999,110.197327 403.450562,99.774597 395.168518,90.208435 385.556763,82.002136 374.796631,75.330994 363.663391,69.378784 352.239197,63.866699 340.462769,59.271912 328.548950,54.992554 316.440308,51.520447 304.252258,48.579285 291.834900,46.615662 279.253784,45.632385 262.174622,44.568726 261.996399,12.156372 282.147705,13.507324 294.633850,14.890564 307.065125,16.651428 319.313904,19.340454 331.513794,22.269104 343.495850,26.219788 355.397705,30.508911 366.948059,35.702026 378.427307,41.041565 389.330627,47.469299 400.263000,53.864990 410.512329,61.239807 420.529358,68.930298 430.075256,77.204773 439.366150,85.795288 447.921936,95.136047 456.165710,104.734619 463.755859,114.880859 471.148193,125.161682 477.636841,136.027222 483.885376,147.046509 489.224976,158.525818 494.254883,170.138733 498.585205,182.028931 502.270264,194.105652 505.408569,206.352112 507.808960,218.693970 509.789795,231.090179 510.884766,243.623322 511.613403,256.220764 511.442139,268.818207 510.849976,281.408752 509.694214,293.932587 507.739136,306.330811 505.246704,318.664185 502.143799,330.918396 498.201660,342.892334 494.112549,354.860535 488.947021,366.416138 483.509521,377.879883 477.154053,388.838501 470.857788,399.832764 463.277710,409.987366 455.700806,420.143433 447.425598,429.712646 438.832214,439.018921 429.535278,447.621582 419.953247,455.865051 409.778564,463.341553 399.641113,470.878357 388.734863,477.331726 377.698425,483.550293 366.234680,488.987793 354.666626,494.119263 342.704285,498.228088 330.713562,502.049316 318.575134,505.230103 306.285095,507.721436 293.888123,509.692017 281.403076,511.080627 268.821228,511.724121 256.126587,511.797363 243.547363,511.097717 231.062317,509.711060 218.641785,507.829956 206.293701,505.462036 194.168518,502.171692 182.124817,498.494202 170.210388,494.216187 158.626526,489.118896 147.144470,483.784668 136.103455,477.575317 125.228699,471.101379 114.918518,463.762756 104.777954,456.165039 95.210876,447.887024 85.913391,439.284729 77.319336,429.997314 68.948425,420.537842 61.277954,410.505981 53.903931,400.260254 47.364990,389.423096 41.165710,378.376099 35.485718,367.019897 30.382996,355.435852 26.238220,343.489929 22.415283,331.431458 19.204895,319.301880 16.759094,306.991821 14.757874,294.621490 13.286926,282.164185 12.606323,269.560791 12.587891,256.863525 13.282349,244.260315 14.658752,231.775208 16.369629,219.352997 18.755127,207.040253 21.878967,194.869080 25.581116,182.783112 29.671265,170.813599 34.836548,159.257080 40.273987,147.793335 46.468811,136.744812 52.835632,125.791504 60.104126,115.482300 67.674805,105.376953 75.868530,95.749146 84.463989,86.445007 93.751587,77.851135 103.097412,69.319641 113.272827,61.769470 123.380920,54.135864 134.321777,47.746704 145.321533,41.459961 156.756287,35.960144 168.299805,30.769531 180.196533,26.456177 192.164124,22.460999 204.355530,19.497620 216.603882,16.673645 229.048035,14.916443 241.534973,13.689819 260.287659,12.548706" />
				<polygon fill="#8F979D" stroke="none" fill-opacity="1" points="273.198547,180.969025 274.049683,181.147430 275.751892,181.198029 277.454163,181.200470 279.156433,181.200562 280.858704,181.200562 282.560913,181.190826 284.263184,181.889679 285.965454,182.043579 287.667725,182.051361 289.369934,182.051727 291.072205,182.270844 292.774475,182.866058 294.476685,182.901093 296.178955,182.902771 297.881348,183.121979 299.583557,183.717194 301.285828,183.752167 302.988098,183.753937 304.690369,183.744171 306.392578,184.443085 308.094849,184.587158 309.797119,185.293823 311.499390,185.448090 313.201599,185.674988 314.903870,186.270508 316.606140,186.524689 318.308411,187.121613 320.010620,187.146881 321.712891,187.847504 323.415161,187.991699 325.117432,188.698334 326.819641,189.071686 328.521912,189.664917 330.224243,190.399170 331.926453,190.773895 333.628662,191.367157 335.330933,192.101410 337.033264,192.476227 338.735413,193.069366 340.437805,193.803680 342.140076,194.178406 343.842285,195.000580 345.544434,195.621399 347.246826,196.347168 348.949097,197.191986 350.651306,198.042755 352.353577,198.893921 354.055847,199.745026 355.758118,200.596161 357.460327,201.447266 359.162598,202.298431 360.864929,203.149597 362.567139,204.000702 364.269348,204.851776 365.971741,205.702942 367.673889,206.783020 369.376160,207.759369 371.078369,208.616882 372.780762,209.458496 374.482971,210.779602 376.185181,211.659393 377.887512,212.511902 379.589783,213.582245 381.291992,215.028564 382.994263,216.133850 384.696533,217.810760 386.398804,218.812469 388.101135,220.360748 389.803284,221.836090 391.505554,222.942749 393.207825,224.619781 394.910034,225.621490 396.612305,226.950653 398.314575,228.049957 400.016846,229.497711 401.719177,230.612793 403.421326,231.581116 405.123596,232.908630 406.825867,234.017639 408.528198,234.985626 410.230469,236.313171 411.932678,237.422180 413.634888,238.399963 415.337219,239.257507 417.039490,240.108978 418.741638,240.950317 420.443970,242.271393 422.146240,243.151184 423.858337,244.003723 424.652405,245.074036 424.697266,246.739471 424.480347,248.439941 423.885254,250.142120 423.631165,251.844360 423.034241,253.546600 423.008911,255.248901 422.308350,256.951172 422.164185,258.653412 421.457458,260.355682 421.303345,262.057922 421.076294,263.760193 420.480835,265.462463 420.226624,267.164703 419.629761,268.867004 419.604431,270.569214 418.903931,272.271484 418.749878,273.973755 418.522949,275.675995 417.927429,277.378265 417.673218,279.080536 417.076416,280.782776 417.051086,282.485046 416.350403,284.187286 416.196533,285.889557 415.969604,287.591827 415.154846,289.294098 414.534424,290.996368 413.798889,292.698608 413.424072,294.400879 412.601868,296.103119 411.981079,297.805389 411.255249,299.507629 410.400696,301.209900 410.029663,302.702881 408.518066,302.682617 406.825378,302.097351 405.123596,302.062805 403.421326,302.061096 401.719177,302.070862 400.016846,301.371948 398.314575,301.218018 396.612305,301.210327 394.910034,301.209961 393.207825,301.200073 391.505554,301.898987 389.803284,302.271973 388.101135,303.094055 386.398804,303.943787 384.696533,304.794861 382.994263,305.645996 381.291992,306.497070 379.589783,307.119263 377.887512,307.845215 376.185181,308.689941 374.482971,309.540771 372.780762,310.611023 371.078369,312.276489 369.595276,313.976929 368.488281,315.679077 366.820984,317.381348 365.120422,319.083618 363.418213,320.785889 361.706177,322.488159 360.702820,324.190430 359.154480,325.902466 357.459961,326.905884 355.758118,328.454224 354.055847,330.158508 352.353577,331.161499 350.651306,332.709839 348.949097,334.414185 347.246826,335.417175 345.544434,336.965454 343.842285,338.440918 342.140076,339.328491 340.437805,340.181396 338.735413,341.032593 337.033264,341.883667 335.330933,342.734863 333.628662,343.585999 331.926453,344.437134 330.224243,345.288208 328.521912,346.368286 326.819641,347.115723 325.117432,347.848022 323.415161,348.702881 321.712891,349.083740 320.010620,349.906189 318.308411,350.526978 316.606140,351.252808 314.903870,352.107422 313.201599,352.488281 311.499390,353.310669 309.797119,353.931519 308.094849,354.657349 306.382751,355.721191 305.379395,357.386353 304.050171,359.086792 302.940979,360.788940 301.973083,362.491272 300.645569,364.193481 299.536499,365.895752 298.568604,367.598022 297.241028,369.300293 296.131958,371.002563 295.154236,372.704834 294.515747,374.407043 294.259460,376.109314 293.672363,377.811584 292.938354,379.513794 292.792542,381.216064 292.085815,382.918335 291.941345,384.620605 291.234680,386.322876 290.861328,388.025146 290.258362,389.727417 290.003784,391.429688 289.406921,393.131897 289.152588,394.834167 288.555725,396.536438 288.301514,398.238647 287.704651,399.940918 287.450378,401.643188 286.853455,403.345459 286.599182,405.047729 286.002319,406.750000 285.748108,408.452271 285.151245,410.154541 284.897034,411.856812 284.300171,413.559082 284.264954,415.261292 284.273010,416.963562 283.574158,418.665833 283.420227,420.368042 283.412476,422.070312 283.412109,423.772583 283.192993,425.474854 282.597717,427.177063 282.562744,428.879395 282.351746,430.372314 280.848206,430.571167 279.155945,430.581177 277.454163,430.581604 275.751892,430.581665 274.049683,430.581665 272.347412,430.581665 270.645142,430.581665 268.942871,430.581665 267.240662,430.581665 265.538269,430.581665 263.835999,430.581665 262.133850,430.800781 260.431519,431.395935 258.729370,431.430969 257.026978,431.432678 255.324829,431.432739 253.622498,431.432739 251.920227,431.432739 250.218018,431.432739 248.515747,431.432739 246.813477,431.432739 245.111206,431.432739 243.618286,431.223450 243.419434,429.720093 243.190308,428.027710 242.594666,426.325928 242.559570,424.623718 242.557983,422.921448 242.338745,421.219238 241.743469,419.516968 241.708496,417.814697 241.706787,416.112427 241.716553,414.410156 241.017578,412.707886 240.863770,411.005615 240.865723,409.303406 240.166504,407.601074 240.022400,405.898865 239.315796,404.196655 239.171265,402.494385 238.464600,400.792114 238.320190,399.089844 237.613525,397.387573 237.240051,395.685303 236.637146,393.983032 236.382629,392.280762 235.785706,390.578491 235.531433,388.876221 234.944397,387.174072 234.210449,385.471741 233.835632,383.769531 233.242432,382.067261 232.508179,380.364990 232.133423,378.662720 231.540161,376.960449 230.805908,375.258179 230.431152,373.555908 229.837891,371.853638 229.103638,370.151428 228.738708,368.449158 227.227417,366.746887 225.534790,365.044678 223.832947,363.342407 222.130798,361.640137 220.428406,359.937866 218.716431,358.235596 217.713013,356.533325 216.164673,354.831116 214.470154,353.338135 212.768250,352.920166 211.066040,352.095825 209.363770,351.246094 207.661499,350.623901 205.959290,349.898071 204.256958,349.053223 202.554749,348.192627 200.852478,347.811462 199.150269,346.989014 197.447937,346.368164 195.745728,345.642395 194.043396,344.797607 192.341187,343.717896 190.638916,342.741516 188.936646,341.884033 187.234375,341.032593 185.532166,340.181458 183.829895,339.340088 182.127625,338.019043 180.425354,337.139221 178.723083,336.286743 177.020813,335.216431 175.318542,333.550903 173.616333,331.850464 171.914062,330.148315 170.211792,328.446045 168.509521,326.734009 166.807312,325.730591 165.105042,324.182251 163.392944,322.487793 162.389587,320.785889 160.841248,319.083618 159.146729,317.381348 157.434998,315.679077 156.431702,313.976807 154.883362,312.274597 153.188782,310.572327 151.477112,308.870117 150.473816,307.158020 148.925415,306.144775 147.230896,305.514465 145.528992,304.788208 143.826782,303.933594 142.124573,303.552734 140.422241,302.730225 138.719971,302.109497 137.017761,301.383667 135.315491,300.529053 133.613159,300.148224 131.910950,299.325745 130.208740,298.695129 128.506470,298.877533 126.804138,299.470917 125.101929,299.496063 123.399658,300.196655 121.697388,300.350616 119.995117,300.577515 118.292908,301.173096 116.590637,301.208130 114.888367,301.209839 113.176270,301.000610 112.382263,299.497192 112.118103,297.804871 111.530579,296.103088 110.796570,294.400879 110.650757,292.698608 109.944031,290.996368 109.799561,289.294098 109.092957,287.591827 108.719543,285.889557 108.116577,284.187286 108.081177,282.485046 107.860291,280.782776 107.265076,279.080536 107.229980,277.378265 107.238098,275.675995 106.539124,273.973755 106.385254,272.271484 106.387329,270.569214 105.687988,268.867004 105.534058,267.164703 105.536133,265.462463 104.836853,263.760193 104.682983,262.057922 104.684937,260.355682 103.985779,258.653412 103.831848,256.951172 103.604980,255.248901 103.009338,253.546600 102.974365,251.844360 102.753479,250.142120 102.158203,248.439850 102.123230,246.737579 102.330811,245.035370 103.834167,243.552185 105.526428,242.664246 107.228149,241.582428 108.930420,240.615753 110.632690,239.288300 112.334961,238.408203 114.037231,237.326721 115.739502,236.360107 117.441772,235.032654 119.144043,233.933441 120.846252,232.485687 122.548523,231.380402 124.250793,229.932312 125.953064,228.826935 127.655334,227.149994 129.357605,226.148346 131.059814,224.590271 132.762085,223.594635 134.464355,222.036865 136.166626,221.041260 137.868835,219.483459 139.571106,218.487854 141.273438,217.158997 142.975708,216.059723 144.677856,214.611969 146.380127,213.506683 148.082458,212.058594 149.784668,210.943451 151.486938,209.965332 153.189209,209.117584 154.891479,207.796204 156.593689,206.687469 158.295959,205.709717 159.998230,204.861969 161.700562,203.540527 163.402710,202.660767 165.105042,201.579315 166.807312,200.602844 168.509521,199.745392 170.211792,199.122894 171.914062,198.396942 173.616333,197.552155 175.318542,196.691559 177.020813,196.310394 178.723083,195.487915 180.425354,194.638184 182.127625,194.016052 183.829895,193.290131 185.532166,192.435577 187.234375,192.054749 188.936646,191.451416 190.638916,191.196869 192.341187,190.599945 194.043396,190.345703 195.745728,189.758575 197.447937,189.024658 199.150269,188.878815 200.852478,188.172119 202.554749,187.798706 204.256958,187.195740 205.959290,186.941193 207.661499,186.344269 209.363770,186.319000 211.066040,185.618378 212.768311,185.474243 214.470520,184.767548 216.172791,184.613312 217.875122,184.386414 219.577332,183.790863 221.279602,183.536682 222.981873,182.939758 224.684143,182.904694 226.386353,182.683838 228.088684,182.088562 229.790955,182.053528 231.493164,182.051788 233.195374,181.832611 234.897644,181.237396 236.599976,181.202362 238.302185,181.200745 240.004456,181.210419 241.706726,180.511505 243.408997,180.357635 245.111206,180.349854 246.813477,180.349518 248.515747,180.349457 250.218018,180.349457 251.920227,180.349457 253.622498,180.349457 255.324829,180.349457 257.026978,180.349457 258.729370,180.349457 260.431519,180.349457 262.133850,180.349457 263.835999,180.349457 265.538269,180.349457 267.240662,180.349457 268.942871,180.349457 270.654907,180.339661 271.658264,180.812256 272.384155,180.632172" />
			</g>
			<!--Layer: Circle_Lines-->
			<g id="Circle_Lines">
				<polyline stroke="#333949" stroke-opacity="1" fill="none" stroke-linecap="round" stroke-width="11.8085938" points="212.965393,14.845215 237.453003,11.313416 262.159180,10.000000 286.865417,11.313416 311.353027,14.845215 335.328186,20.953308 358.656372,29.194519 380.979187,39.862549 402.251282,52.496460 422.064087,67.314575 440.462646,83.855652 457.003845,102.254272 471.821899,122.067017 484.455811,143.339111 495.123901,165.661987 503.365112,188.990143 509.473145,212.965332 513.005005,237.452972 514.318359,262.159149 513.005005,286.865295 509.473145,311.352966 503.365112,335.328125 495.123901,358.656250 484.455811,380.979126 471.821899,402.251282 457.003845,422.063965 440.462646,440.462585 422.064087,457.003784 402.251282,471.821838 380.979187,484.455750 358.656372,495.123840 335.328186,503.364990 311.353027,509.473145 286.865417,513.004883 262.159180,514.318298 237.453003,513.004883 212.965393,509.473145 188.990234,503.364990 165.662048,495.123840 143.339172,484.455750 122.067078,471.821838 102.254333,457.003784 83.855774,440.462585 67.314575,422.063965 52.496521,402.251282 39.862549,380.979126 29.194519,358.656250 20.953308,335.328125 14.845215,311.352966 11.313416,286.865295 10.000000,262.159149 11.313416,237.452972 14.845215,212.965332 20.953308,188.990143 29.194519,165.661987 39.862549,143.339111 52.496521,122.067017 67.314575,102.254272 83.855774,83.855652 102.254333,67.314575 122.067078,52.496460 143.339172,39.862549 165.662048,29.194519 188.990234,20.953308 212.965393,14.845215" />
				<polyline stroke="#333949" stroke-opacity="1" fill="none" stroke-linecap="round" stroke-width="11.8084717" points="300.396545,45.148438 323.755737,50.724182 347.573547,59.131958 369.933289,69.638489 389.255493,81.641907 400.991455,92.549011 411.503540,106.961121 420.609619,124.356323 427.997559,144.017944 432.386047,156.507202 436.498718,164.746582 440.831421,170.049866 446.743774,174.191315 459.493347,183.482941 470.007324,195.684296 477.019531,209.437836 479.587891,223.165253 479.390503,229.035370 478.290283,233.687500 475.981445,237.817688 472.728760,241.485809 468.773438,245.067017 463.997681,247.387482 458.460876,247.928925 451.292847,247.527222 446.149109,247.056244 441.277527,246.459961 437.116821,245.797150 437.143677,251.572021 433.681396,272.884766 428.678467,296.201111 424.042664,311.344238 428.215454,312.768127 435.955505,316.536194 443.315369,322.006104 449.435730,328.573975 453.802124,335.984375 455.995056,344.595337 456.460571,354.444702 455.396423,364.641968 452.663086,374.562744 443.461548,390.940552 428.533936,409.610291 410.114990,428.202576 390.312988,444.358459 369.895325,456.886841 346.976990,467.915894 325.274597,475.879028 308.731506,479.046997 303.158325,478.837402 298.662720,477.631287 294.642517,475.252869 290.946777,471.935303 287.154114,467.744873 284.715881,462.653564 284.028076,456.488647 284.159973,447.864929 284.914734,443.076172 275.141602,445.315186 263.130737,445.914917 251.146973,445.045471 245.637573,444.248962 241.162659,443.625854 241.538330,444.755737 241.717896,449.271973 241.597839,458.738281 239.369202,466.860291 234.362000,473.212219 227.161987,477.412476 220.123352,479.209839 212.097961,478.832764 202.129395,476.409119 188.421936,471.810852 161.133850,459.811218 135.257629,443.980957 111.758484,424.942810 91.467102,403.301575 79.279053,386.254578 71.671692,370.491699 68.636597,355.330139 70.227234,340.708557 74.390137,331.517334 80.994263,323.391968 89.232117,316.754639 97.907104,312.606445 101.898438,311.262695 97.480713,298.548492 94.058411,284.128052 91.304199,270.299469 89.395935,257.889679 88.156250,248.831390 88.049683,246.217926 84.943665,246.549561 80.388916,247.109253 75.181946,247.584198 65.357422,247.647552 57.162415,245.517578 50.946350,240.306824 47.076172,232.045227 46.622498,216.304474 53.201904,199.523102 65.158264,184.321808 80.540833,173.131683 85.429077,169.770355 89.229431,164.831055 93.255249,156.420532 97.892395,143.349365 105.878723,122.834045 115.722351,105.003174 127.310791,90.254822 140.449463,78.914795 151.629028,72.161072 165.656006,64.934875 180.262939,58.266357 193.152527,53.316223 219.056824,46.699890 246.579041,43.026489 274.083130,42.440674 299.702393,45.031006" />
				<polygon stroke="#838C8E" stroke-opacity="1" fill="none" stroke-linecap="round" stroke-width="11.9356079" points="99.109192,243.993988 116.386292,233.354889 132.484070,220.964966 148.898376,208.999634 166.194885,198.374481 184.824890,190.309418 204.375549,184.832611 224.175171,180.302094 244.341980,177.928955 264.641052,177.692566 284.896301,179.214447 305.069153,181.603546 324.881287,186.043091 344.123901,192.532104 362.474304,201.206909 380.102661,211.303467 395.853027,223.850677 412.989746,235.592865 427.877014,243.556427 422.445618,267.971741 418.210754,287.840912 413.482178,307.425232 393.424744,303.234131 374.317627,312.047424 360.468933,327.302246 345.166504,340.035156 327.507202,349.379517 308.193237,357.015503 297.270325,373.312378 291.886108,393.025513 286.928345,412.838867 284.737000,433.081482 261.942078,433.514648 241.278198,434.336914 238.307678,409.312500 233.249756,389.640198 226.422546,369.229919 213.741333,355.572510 194.989868,347.709961 176.701355,337.694946 162.219604,324.044189 148.728088,308.551514 130.269470,301.202942 111.352661,304.691650 106.030945,285.162048 102.770081,265.110291" />
				<polyline stroke="#333949" stroke-opacity="1" fill="none" stroke-linecap="round" stroke-width="11.9355469" points="409.791931,430.621338 414.093445,434.584900 416.963623,437.369629 421.202026,441.695496 422.652527,443.226440 425.804871,446.707642" />
				<polyline stroke="#333949" stroke-opacity="1" fill="none" stroke-linecap="round" stroke-width="11.9355469" points="114.526428,430.621338 110.224976,434.584900 107.354736,437.369629 103.116394,441.695496 101.665833,443.226440 98.513550,446.707642" />
				<polyline stroke="#333949" stroke-opacity="1" fill="none" stroke-linecap="round" stroke-width="11.9355469" points="262.409912,10.054077 262.033020,36.777832" />
			</g>
			<!--Layer: center-->
			<g id="center">
				<polygon fill="#3C4253" stroke="none" fill-opacity="1" points="239.564148,186.755768 261.564697,186.334686 283.622131,186.751648 304.828552,188.641205 324.354126,192.853699 341.460083,200.060455 355.500671,210.679626 365.941284,224.818085 372.379944,242.244568 374.563843,262.298706 372.408264,283.083069 366.018799,302.201233 355.645508,318.786499 341.684143,332.370178 324.663330,342.706482 305.226501,349.769958 284.112427,353.736694 262.135498,354.956299 240.158569,353.736694 219.044373,349.769958 199.607605,342.706482 182.586853,332.370178 168.625488,318.786499 158.252136,302.201233 151.862610,283.083069 149.701355,262.298706 151.830994,242.244690 158.157593,224.818604 168.435547,210.681152 182.277832,200.063324 199.172546,192.858154 218.502808,188.646576 239.564148,186.755768" />
				<polygon fill="#333949" stroke="none" fill-opacity="1" points="253.766357,230.922607 261.853699,230.748779 269.963074,230.917480 277.742493,231.649567 284.885559,233.235809 291.131409,235.908325 296.255188,239.815521 300.069641,244.998383 302.431213,251.377960 303.245239,258.719849 302.474792,266.334747 300.155884,273.347107 296.379639,279.441772 291.287659,284.449554 285.066040,288.280945 277.939758,290.921448 270.171143,292.421143 262.063538,292.886871 253.956360,292.419373 246.189209,290.918610 239.064514,288.277863 232.844299,284.446716 227.753296,279.439514 223.977783,273.345673 221.659241,266.334229 220.886841,258.720306 221.680969,251.379425 224.001465,245.000977 227.756226,239.819550 232.806763,235.913940 238.973755,233.242828 246.042847,231.656891 253.766357,230.922607" />
			</g>
		</g>
	</g>
</svg>
